<?xml version="1.0" encoding="utf-8"?>
<!-- Generator: Adobe Illustrator 18.0.0, SVG Export Plug-In . SVG Version: 6.00 Build 0)  -->
<svg version="1.1" id="026b66d6-bbac-45d6-967d-4e062eb6f997" xmlns="http://www.w3.org/2000/svg" xmlns:xlink="http://www.w3.org/1999/xlink" x="0px" y="0px" viewBox="0 0 460.8 162.55" enable-background="new 0 0 841.9 595.3" xml:space="preserve">
<g>
<path fill="#1e0522" d="M0,135.17v124H460.8V134.64h-6.48a10.23,10.23,0,0,1-3.6-.51,24.3,24.3,0,0,1-4.56-3l-5.76-4.61c-1.23-1-3.78-3.7-5.28-3.75a6.52,6.52,0,0,0-2.88,1.14l-4.8,2.53-15.12,6.66c-3.47,1.51-5.6,3-9.6,3H380.4a8.12,8.12,0,0,1-2.4-.22c-2.47-.67-6.37-3.74-8.4-5.4a16.05,16.05,0,0,0-4.08-2.89c-1.07-.47-3.36-.1-4.56,0l-7.92.59-3.36.48h-2.4a22.5,22.5,0,0,1-4.56.48l-8.16,1a23.52,23.52,0,0,0-4.56.48h-2.64a9.41,9.41,0,0,1-2.4.22c-3.43-.24-13.81-4.73-17.76-4.79h-2.88c-1.9-.14-3.87-.5-5.76,0-4.08,1.06-5.27,3.6-10.32,3.61h-34.8l-5,.37L235,134.5c-2.13.8-6.54,2.58-8.64,2.74s-5.06-1-7-1.71L209,132.16l-6-1.89-5-2.06-8.64-2.76L185,124.2l-5.52-2.27-11.28-3.4L162,117.16l-9.84,1.08c-2.18,0-3.67-1.77-5.76-1.14l-10.08,4.64c-1.87.93-3.88,2.08-6,2.26-3.33.29-6.47-4-9.36-3.94L113,121.14l-18.48,2.73L86.4,125c-3.9.18-5.7-4.37-8.88-3.66l-7,2.58-8.64,3L53.52,130c-3.09,1.1-8.07,2.91-11.28,3l-9.84-1-7.68.68L11,134.2s-5.22.55-7,.7S2.43,135,0,135.17Z" transform="translate(0 -116.96)" />
</g>
</svg>