<?xml version="1.0" encoding="utf-8"?>
<!-- Generator: Adobe Illustrator 18.0.0, SVG Export Plug-In . SVG Version: 6.00 Build 0)  -->
<svg version="1.1" id="f817da41-1ff4-479d-99f9-24f79d629e5e" xmlns="http://www.w3.org/2000/svg" xmlns:xlink="http://www.w3.org/1999/xlink" x="0px" y="0px" viewBox="0 0 460.8 162.55" enable-background="new 0 0 841.9 595.3" xml:space="preserve">
<g>
<path fill="#26072a" d="M0,99.84V259.2H460.8V99.84L450.48,101l-17,3c-3.27.7-5.32,2.52-8.4,2.59-2.83.06-8.36-1.18-11.28-1.82l-11.28-2.08-6.72-1.1-7.2,1.12c-1.44.1-5-.88-6.48-1.3L370.8,98.3c-2-.59-4.36-1.51-6.48-1.3-2.61.26-5,1.77-7.44,2.73l-9.36,3.61c-4.36,1.73-6.42,3-11.28,3l-3.84.24a59.68,59.68,0,0,0-11,.88l-5.52,1.68a46.17,46.17,0,0,1-9.84,2,28.82,28.82,0,0,1-4.8-.7l-6-1.1-13-2.71-5.52-1.71c-3.62-1.21-10.83-3.8-14.4-3.84a77.61,77.61,0,0,0-12.72.89l-4.56.44L237.6,105l-13.2,5.72c-2.49,1.13-5.4,2.69-8.16,2.8l-3.36-.23-5.28-.2-4.32.44H189.12c-3.32,0-14.94-1.75-18.72-2.38l-15.12-2.56-6-.89a39.05,39.05,0,0,1-6.24-2.75l-9.12-4.44c-2-1-5.08-2.65-7.2-2.57-3.37.13-5.87,2-8.4,4-1.53,1.2-4,3-6,3.11-1.25,0-3-.89-4.08-1.44L102.48,101c-1.2-.55-2.22-1.21-3.6-1.08-2.16.2-4.44,2.15-7.44,2.33-1.77.1-5-1.08-6.72-1.66L75.84,98a32.47,32.47,0,0,0-5.28-1.29c-1.85-.11-6.83,1-8.88,1.4L49,100.47l-7,1.25-2.88-.21h-3.6l-2.64-.23L26.64,101,23,100.8l-5.52-.24-7.68-.24L6,100.08Z" transform="translate(0 -96.65)" />
</g>
</svg>