<?xml version="1.0" encoding="utf-8"?>
<!-- Generator: Adobe Illustrator 18.0.0, SVG Export Plug-In . SVG Version: 6.00 Build 0)  -->
<svg version="1.1" id="6984aa3d-78c1-40da-8311-38b410ffb066" xmlns="http://www.w3.org/2000/svg" xmlns:xlink="http://www.w3.org/1999/xlink" x="0px" y="0px" viewBox="0 0 460.8 181.94" enable-background="new 0 0 841.9 595.3" xml:space="preserve">
<g>
<path fill="#400442" data-name="pink mountain" d="M0,91V259.2H460.8V91.68c-1.68,1.28-3.54,1.12-5.52.72-3.69-.75-7.94-3.56-11-3.8L433.44,90,417.6,92.15l-8.16-.78c-3-.37-5.71-.64-8.16-2.61-3.26-2.64-4.17-5.91-7.92-6a60,60,0,0,0-11.52.75l-7.68,1.06c-1.4,0-2.14-.91-5-.85L367,84l-6,.48a53,53,0,0,0-7.44.66c-3.42.74-7.88,4.76-12.48,6.07l-6.48.8-15.84,1.65-13,2.56-9.12-1.08-9.84,3.32a6.18,6.18,0,0,1-3.6-1.14L277,93.18l-6.72-3.35L265,87.54l-7.44-4.22-6-3.74a16.4,16.4,0,0,0-2.88-1.79,36,36,0,0,0-4.8-.51,39.69,39.69,0,0,0-5.52.15L229,82.35l-7.68,4.29-3.6,2.29-6.48,3.53c-4.52,2.27-7,4.08-12.24,4l-3.6-.24H177.6l-8.16-1.14L155,93.32l-8.16-.95h-3.12c-2-.3-8.49-2.89-10.8-3.76-2.49-1-5-2.18-7.68-2.21l-5.28.24c-2.77,0-8.62.23-11-.42-3.18-.86-3.65-2.93-8.4-2.94H95L91.44,83a40.86,40.86,0,0,1-6.72-.35l-7-1.38-7-1.17L65,79.26c-2.35,0-6.21,3.17-8.16,4.49-1.49,1-7.29,4.81-8.64,5.27a30.43,30.43,0,0,1-6.24.74L30.24,90l-4.08.24-9.6.24-3.6.24H8.64L6.48,91l-3.12-.23Z" transform="translate(0 -77.26)"/>
</g>
</svg>